<?xml version="1.0" encoding="UTF-8"?>
<svg width="295pt" height="300pt" version="1.0" viewBox="0 0 295 300" xmlns="http://www.w3.org/2000/svg">
<metadata>
<rdf:rdf xmlns:dc="http://purl.org/dc/elements/1.1/" xmlns:rdf="http://www.w3.org/1999/02/22-rdf-syntax-ns#" xmlns:rdfs="http://www.w3.org/2000/01/rdf-schema#">
<rdf:description dc:date="2015-03-14" dc:format="image/svg+xml" dc:language="en" dc:publisher="Hiox" dc:title="witch silhouette vector">
<dc:creator>
<rdf:bag>
<rdf:li>svgimages.com</rdf:li>
</rdf:bag>
</dc:creator>
</rdf:description>
</rdf:rdf>
</metadata>
<g transform="translate(0 300) scale(.1 -.1)" fill="#060606">
<path class="node" d="m1047 2915c-144-20-259-64-373-142-42-29-147-119-129-111 6 2 46 21 89 42 145 70 295 108 473 122 77 6 98 4 163-17 47-15 86-36 108-57 19-18 33-34 31-36-2-3-63-16-134-31-145-29-225-59-208-76 6-6 71-18 145-25 122-13 237-30 244-37 1-1-3-21-9-45-13-49-23-51-97-22-57 22-120 26-153 9-12-7-48-36-79-65-62-59-61-59-141-43-66 14-95 8-136-27-39-32-40-49-3-30 88 45 144 27 235-78 97-112 111-121 182-120 41 0 73 7 100 21 32 17 63 22 148 25 59 1 107 0 107-4 0-5-10-8-23-8-63 0-95-65-72-150 20-74 19-116-4-183-38-111-90-162-200-198-36-12-81-33-99-46-75-56-114-166-93-263 6-29 10-54 8-56-12-12-343-110-348-103-9 16-69 18-69 3 0-18-9-18-53 1-47 20-91 19-130-2-25-13-53-16-125-15-63 2-107-2-139-13-61-21-68-26-52-36 11-8 10-12-5-24-11-8-16-15-11-15s4-5-2-11-9-18-6-25c3-8 1-14-5-14-13 0-63-52-85-89-15-26-16-30-2-25 18 7 19 0 5-27-9-16-7-19 14-19 18 0 24-4 20-15-7-18-8-18 35-5 41 12 59 3 34-17-16-13-13-14 32-8 47 5 49 5 30-10s-17-16 25-9c43 7 44 6 30-11-14-16-13-17 5-12 58 18 78 19 85 7 14-23 61-1 118 55 37 37 65 55 90 60 20 4 49 13 65 21 30 16 67 68 67 96 0 10 10 20 25 24s28 16 31 30c5 21 28 31 181 80l174 56 22-20c12-11 45-34 73-51 56-34 71-62 55-104-12-31-57-67-93-74-43-8-43-21-1-33 70-21 193-23 307-6 60 9 111 14 114 11 11-11-147-151-198-177-62-31-92-42-103-39-4 0-10-6-13-14-5-12-17-14-58-9-46 5-56 2-109-31-52-33-67-52-51-67 3-3 19 1 35 9s37 12 45 9c26-10 11-39-36-66-42-25-46-30-77-125-49-152-44-164 27-67 98 134 294 281 531 397 178 87 184 91 184 113 1 29 50 94 106 142 44 37 49 45 44 71-6 24-3 30 17 38 13 5 40 27 61 50 20 23 39 41 42 41 14 0 1-40-33-100-34-58-40-77-46-156-8-101-38-265-61-333-17-51-76-121-117-138-20-9-30-25-42-66-9-30-16-62-16-70 0-24 21-32 32-12 6 9 23 31 38 49 27 30 30 30 46 14 17-17 17-20 0-73l-19-54 44-42c84-79 161-139 170-133 6 3 4 15-5 27-43 61-65 112-80 186-38 190-10 323 122 575 34 65 50 105 46 120-3 11 7 53 22 91 14 39 28 93 30 120 1 28 6 60 9 72 5 17 1 25-20 36l-27 14 30 22c36 25 72 95 72 139 0 38 11 45 67 44 23 0 45 4 49 9 3 5 27 9 55 9 55 0 61 11 28 46l-21 23 205 66c164 52 207 70 212 86 7 22-10 49-31 49-7 0-98-27-201-60s-192-59-197-57-1 11 8 20c22 22 5 22-51 1-33-13-48-14-74-5-38 13-45 9-64-35-8-19-21-34-30-34s-13 5-10 11c4 5 10 31 13 57 7 45 9 47 47 54 22 3 60 14 84 22 24 9 74 16 111 16 52 0 71 4 83 18 10 10 17 23 17 29s25 32 55 57c37 33 58 58 65 84 13 49 13 195-1 224-6 13-40 48-75 78-42 37-63 63-64 78-1 55-44 102-93 102-20 0-23-4-20-24 3-13 0-33-6-45-10-18-21-21-75-21-158 0-257-119-256-308 1-107 42-161 153-198 26-8 47-19 47-24 0-11-49-50-63-50-6 0-26 15-45 33l-33 32-61-33c-54-29-62-31-77-18-16 14-20 16-41 16-13 0-80 102-125 193-43 84-68 117-89 117s-27 29-13 56c13 25 13 25 38 6 59-46 129-67 129-39 0 8 22 33 50 56 40 34 50 48 50 73 0 18 10 42 25 60 26 31 31 58 15 87-7 14-4 23 15 41 21 20 39 23 171 31 82 5 152 13 158 19 16 17-31 54-101 80-61 23-218 63-290 75-34 5-47 14-63 40-47 76-129 116-307 150-285 55-424 64-606 40zm1031-1244c33-18 27-30-25-53-65-29-165-36-198-14-26 17-34 46-12 46 7 0 28 10 46 23 29 20 41 22 100 16 36-3 76-11 89-18zm-344-146c16-31 27-57 25-58-11-6-137-46-154-49-16-2-21 4-25 39-4 26-2 44 4 47 7 2 7 8-2 17-10 11-2 17 45 35 32 13 63 23 68 23 6 1 23-24 39-54zm316-115c11-11 20-30 20-41 0-17-4-20-22-15-71 20-141 28-210 22-76-6-107 5-50 18 15 3 50 13 77 20 77 22 161 20 185-4z"/>
</g>
</svg>